<svg xmlns="http://www.w3.org/2000/svg" viewBox="0 0 31.5 31.5"><defs><style>.a{fill:#ff5252;}.b{fill:#fff;}.c{fill:none;stroke:#c4c4c4;stroke-linecap:round;stroke-linejoin:bevel;opacity:0.9;}</style></defs><g transform="translate(-907 -435)"><g transform="translate(9 1)"><circle class="a" cx="15.75" cy="15.75" r="15.75" transform="translate(898 434)"/></g><path class="b" d="M0,29.515H13.05v4.611a6.525,6.525,0,1,1-13.05,0Z" transform="translate(916.225 418.724)"/><path class="b" d="M.329,6.939v-6h0a1,1,0,0,1,2,0h0v6Z" transform="translate(924.672 441)"/><path class="b" d="M.329,6.939v-6h0a1,1,0,0,1,2,0h0v6Z" transform="translate(918.672 441)"/><path class="c" d="M0,.629A5.621,5.621,0,0,0,3.331,1.4,4.6,4.6,0,0,0,6.371,0" transform="translate(921.009 457.251) rotate(-13)"/><path class="b" d="M0,6.116V0A6.52,6.52,0,0,0,2.025.32,6.52,6.52,0,0,0,4.05,0V6.116a15.91,15.91,0,0,1-2.025.129A15.908,15.908,0,0,1,0,6.116Z" transform="translate(920.725 459.655)"/></g></svg>