<?xml version="1.0" encoding="utf-8" standalone="no"?>
<!DOCTYPE svg PUBLIC "-//W3C//DTD SVG 1.1//EN"
  "http://www.w3.org/Graphics/SVG/1.1/DTD/svg11.dtd">
<!-- Created with matplotlib (https://matplotlib.org/) -->
<svg height="180.672813pt" version="1.1" viewBox="0 0 301.54375 180.672813" width="301.54375pt" xmlns="http://www.w3.org/2000/svg" xmlns:xlink="http://www.w3.org/1999/xlink">
 <defs>
  <style type="text/css">
*{stroke-linecap:butt;stroke-linejoin:round;}
  </style>
 </defs>
 <g id="figure_1">
  <g id="patch_1">
   <path d="M 0 180.672813 
L 301.54375 180.672813 
L 301.54375 0 
L 0 0 
z
" style="fill:#ffffff;"/>
  </g>
  <g id="axes_1">
   <g id="patch_2">
    <path d="M 52.320625 150.359063 
L 275.520625 150.359063 
L 275.520625 11.759063 
L 52.320625 11.759063 
z
" style="fill:#ffffff;"/>
   </g>
   <g id="PolyCollection_1">
    <path clip-path="url(#pf27686f519)" d="M -59.279375 150.359063 
L -59.279375 150.359063 
L -57.884375 150.359063 
L -56.489375 150.359063 
L -55.094375 150.359063 
L -53.699375 150.359063 
L -52.304375 150.359063 
L -50.909375 150.359063 
L -49.514375 150.359063 
L -48.119375 150.359063 
L -46.724375 150.359063 
L -45.329375 150.359063 
L -43.934375 150.359063 
L -42.539375 150.359063 
L -41.144375 150.359063 
L -39.749375 150.359063 
L -38.354375 150.359063 
L -36.959375 150.359063 
L -35.564375 150.359063 
L -34.169375 150.359063 
L -32.774375 150.359063 
L -31.379375 150.359063 
L -29.984375 150.359063 
L -28.589375 150.359063 
L -27.194375 150.359063 
L -25.799375 150.359063 
L -24.404375 150.359063 
L -23.009375 150.359063 
L -21.614375 150.359063 
L -20.219375 150.359063 
L -18.824375 150.359063 
L -17.429375 150.359063 
L -16.034375 150.359063 
L -14.639375 150.359063 
L -13.244375 150.359063 
L -11.849375 150.359063 
L -10.454375 150.359063 
L -9.059375 150.359063 
L -7.664375 150.359063 
L -6.269375 150.359063 
L -4.874375 150.359063 
L -3.479375 150.359063 
L -2.084375 150.359063 
L -0.689375 150.359063 
L 0.705625 150.359063 
L 2.100625 150.359063 
L 3.495625 150.359063 
L 4.890625 150.359063 
L 6.285625 150.359063 
L 7.680625 150.359063 
L 9.075625 150.359063 
L 10.470625 150.359063 
L 11.865625 150.359063 
L 13.260625 150.359063 
L 14.655625 150.359063 
L 16.050625 150.359063 
L 17.445625 150.359063 
L 18.840625 150.359063 
L 20.235625 150.359063 
L 21.630625 150.359063 
L 23.025625 150.359063 
L 24.420625 150.359063 
L 25.815625 150.359063 
L 27.210625 150.359063 
L 28.605625 150.359063 
L 30.000625 150.359063 
L 31.395625 150.359063 
L 32.790625 150.359063 
L 34.185625 150.359063 
L 35.580625 150.359063 
L 36.975625 150.359063 
L 38.370625 150.359063 
L 39.765625 150.359063 
L 41.160625 150.359063 
L 42.555625 150.359063 
L 43.950625 150.359063 
L 45.345625 148.7749 
L 46.740625 138.328783 
L 48.135625 128.967223 
L 49.530625 120.631138 
L 50.925625 113.261446 
L 52.320625 106.799063 
L 53.715625 101.184906 
L 55.110625 96.359894 
L 56.505625 92.264943 
L 57.900625 88.840971 
L 59.295625 86.028895 
L 60.690625 83.769632 
L 62.085625 82.004101 
L 63.480625 80.673217 
L 64.875625 79.717898 
L 66.270625 79.079063 
L 67.665625 78.697627 
L 69.060625 78.514508 
L 70.455625 78.470624 
L 71.850625 78.506893 
L 73.245625 78.56423 
L 74.640625 78.583554 
L 76.035625 78.505782 
L 77.430625 78.271831 
L 78.825625 77.822619 
L 80.220625 77.099063 
L 81.615625 76.057602 
L 83.010625 74.716768 
L 84.405625 73.110614 
L 85.800625 71.273194 
L 87.195625 69.23856 
L 88.590625 67.040767 
L 89.985625 64.713867 
L 91.380625 62.291914 
L 92.775625 59.808961 
L 94.170625 57.299063 
L 95.565625 54.79358 
L 96.960625 52.313114 
L 98.355625 49.875574 
L 99.750625 47.498867 
L 101.145625 45.200905 
L 102.540625 42.999595 
L 103.935625 40.912846 
L 105.330625 38.958569 
L 106.725625 37.154671 
L 108.120625 35.519063 
L 109.515625 34.066872 
L 110.910625 32.80211 
L 112.305625 31.726006 
L 113.700625 30.839792 
L 115.095625 30.144696 
L 116.490625 29.64195 
L 117.885625 29.332783 
L 119.280625 29.218426 
L 120.675625 29.300109 
L 122.070625 29.579063 
L 123.465625 30.054487 
L 124.860625 30.717461 
L 126.255625 31.557036 
L 127.650625 32.562261 
L 129.045625 33.722186 
L 130.440625 35.025862 
L 131.835625 36.462337 
L 133.230625 38.020663 
L 134.625625 39.689888 
L 136.020625 41.459063 
L 137.415625 43.306357 
L 138.810625 45.166421 
L 140.205625 46.963025 
L 141.600625 48.619939 
L 142.995625 50.060933 
L 144.390625 51.209778 
L 145.785625 51.990243 
L 147.180625 52.326099 
L 148.575625 52.141115 
L 149.970625 51.359063 
L 151.365625 49.943321 
L 152.760625 48.01571 
L 154.155625 45.737659 
L 155.550625 43.270597 
L 156.945625 40.775955 
L 158.340625 38.415161 
L 159.735625 36.349646 
L 161.130625 34.740838 
L 162.525625 33.750167 
L 163.920625 33.539063 
L 165.315625 34.208515 
L 166.710625 35.617755 
L 168.105625 37.565575 
L 169.500625 39.850766 
L 170.895625 42.272122 
L 172.290625 44.628432 
L 173.685625 46.718489 
L 175.080625 48.341086 
L 176.475625 49.295013 
L 177.870625 49.379063 
L 179.265625 48.455575 
L 180.660625 46.641086 
L 182.055625 44.115677 
L 183.450625 41.059432 
L 184.845625 37.652434 
L 186.240625 34.074766 
L 187.635625 30.506512 
L 189.030625 27.127755 
L 190.425625 24.118577 
L 191.820625 21.659063 
L 193.215625 19.886019 
L 194.610625 18.763158 
L 196.005625 18.210913 
L 197.400625 18.149721 
L 198.795625 18.500018 
L 200.190625 19.182238 
L 201.585625 20.116816 
L 202.980625 21.22419 
L 204.375625 22.424793 
L 205.770625 23.639063 
L 207.165625 24.803922 
L 208.560625 25.922258 
L 209.955625 27.013445 
L 211.350625 28.096857 
L 212.745625 29.19187 
L 214.140625 30.317858 
L 215.535625 31.494197 
L 216.930625 32.74026 
L 218.325625 34.075424 
L 219.720625 35.519063 
L 221.115625 37.091626 
L 222.510625 38.817864 
L 223.905625 40.723602 
L 225.300625 42.834664 
L 226.695625 45.176877 
L 228.090625 47.776064 
L 229.485625 50.658051 
L 230.880625 53.848663 
L 232.275625 57.373725 
L 233.670625 61.259063 
L 235.065625 65.5305 
L 236.460625 70.213862 
L 237.855625 75.334974 
L 239.250625 80.919661 
L 240.645625 86.993748 
L 242.040625 93.583061 
L 243.435625 100.713423 
L 244.830625 108.410661 
L 246.225625 116.700599 
L 247.620625 125.609063 
L 249.015625 135.161876 
L 250.410625 145.384865 
L 251.805625 150.359063 
L 253.200625 150.359063 
L 254.595625 150.359063 
L 255.990625 150.359063 
L 257.385625 150.359063 
L 258.780625 150.359063 
L 260.175625 150.359063 
L 261.570625 150.359063 
L 262.965625 150.359063 
L 264.360625 150.359063 
L 265.755625 150.359063 
L 267.150625 150.359063 
L 268.545625 150.359063 
L 269.940625 150.359063 
L 271.335625 150.359063 
L 272.730625 150.359063 
L 274.125625 150.359063 
L 275.520625 150.359063 
L 275.520625 150.359063 
L 275.520625 150.359063 
L 274.125625 150.359063 
L 272.730625 150.359063 
L 271.335625 150.359063 
L 269.940625 150.359063 
L 268.545625 150.359063 
L 267.150625 150.359063 
L 265.755625 150.359063 
L 264.360625 150.359063 
L 262.965625 150.359063 
L 261.570625 150.359063 
L 260.175625 150.359063 
L 258.780625 150.359063 
L 257.385625 150.359063 
L 255.990625 150.359063 
L 254.595625 150.359063 
L 253.200625 150.359063 
L 251.805625 150.359063 
L 250.410625 150.359063 
L 249.015625 150.359063 
L 247.620625 150.359063 
L 246.225625 150.359063 
L 244.830625 150.359063 
L 243.435625 150.359063 
L 242.040625 150.359063 
L 240.645625 150.359063 
L 239.250625 150.359063 
L 237.855625 150.359063 
L 236.460625 150.359063 
L 235.065625 150.359063 
L 233.670625 150.359063 
L 232.275625 150.359063 
L 230.880625 150.359063 
L 229.485625 150.359063 
L 228.090625 150.359063 
L 226.695625 150.359063 
L 225.300625 150.359063 
L 223.905625 150.359063 
L 222.510625 150.359063 
L 221.115625 150.359063 
L 219.720625 150.359063 
L 218.325625 150.359063 
L 216.930625 150.359063 
L 215.535625 150.359063 
L 214.140625 150.359063 
L 212.745625 150.359063 
L 211.350625 150.359063 
L 209.955625 150.359063 
L 208.560625 150.359063 
L 207.165625 150.359063 
L 205.770625 150.359063 
L 204.375625 150.359063 
L 202.980625 150.359063 
L 201.585625 150.359063 
L 200.190625 150.359063 
L 198.795625 150.359063 
L 197.400625 150.359063 
L 196.005625 150.359063 
L 194.610625 150.359063 
L 193.215625 150.359063 
L 191.820625 150.359063 
L 190.425625 150.359063 
L 189.030625 150.359063 
L 187.635625 150.359063 
L 186.240625 150.359063 
L 184.845625 150.359063 
L 183.450625 150.359063 
L 182.055625 150.359063 
L 180.660625 150.359063 
L 179.265625 150.359063 
L 177.870625 150.359063 
L 176.475625 150.359063 
L 175.080625 150.359063 
L 173.685625 150.359063 
L 172.290625 150.359063 
L 170.895625 150.359063 
L 169.500625 150.359063 
L 168.105625 150.359063 
L 166.710625 150.359063 
L 165.315625 150.359063 
L 163.920625 150.359063 
L 162.525625 150.359063 
L 161.130625 150.359063 
L 159.735625 150.359063 
L 158.340625 150.359063 
L 156.945625 150.359063 
L 155.550625 150.359063 
L 154.155625 150.359063 
L 152.760625 150.359063 
L 151.365625 150.359063 
L 149.970625 150.359063 
L 148.575625 150.359063 
L 147.180625 150.359063 
L 145.785625 150.359063 
L 144.390625 150.359063 
L 142.995625 150.359063 
L 141.600625 150.359063 
L 140.205625 150.359063 
L 138.810625 150.359063 
L 137.415625 150.359063 
L 136.020625 150.359063 
L 134.625625 150.359063 
L 133.230625 150.359063 
L 131.835625 150.359063 
L 130.440625 150.359063 
L 129.045625 150.359063 
L 127.650625 150.359063 
L 126.255625 150.359063 
L 124.860625 150.359063 
L 123.465625 150.359063 
L 122.070625 150.359063 
L 120.675625 150.359063 
L 119.280625 150.359063 
L 117.885625 150.359063 
L 116.490625 150.359063 
L 115.095625 150.359063 
L 113.700625 150.359063 
L 112.305625 150.359063 
L 110.910625 150.359063 
L 109.515625 150.359063 
L 108.120625 150.359063 
L 106.725625 150.359063 
L 105.330625 150.359063 
L 103.935625 150.359063 
L 102.540625 150.359063 
L 101.145625 150.359063 
L 99.750625 150.359063 
L 98.355625 150.359063 
L 96.960625 150.359063 
L 95.565625 150.359063 
L 94.170625 150.359063 
L 92.775625 150.359063 
L 91.380625 150.359063 
L 89.985625 150.359063 
L 88.590625 150.359063 
L 87.195625 150.359063 
L 85.800625 150.359063 
L 84.405625 150.359063 
L 83.010625 150.359063 
L 81.615625 150.359063 
L 80.220625 150.359063 
L 78.825625 150.359063 
L 77.430625 150.359063 
L 76.035625 150.359063 
L 74.640625 150.359063 
L 73.245625 150.359063 
L 71.850625 150.359063 
L 70.455625 150.359063 
L 69.060625 150.359063 
L 67.665625 150.359063 
L 66.270625 150.359063 
L 64.875625 150.359063 
L 63.480625 150.359063 
L 62.085625 150.359063 
L 60.690625 150.359063 
L 59.295625 150.359063 
L 57.900625 150.359063 
L 56.505625 150.359063 
L 55.110625 150.359063 
L 53.715625 150.359063 
L 52.320625 150.359063 
L 50.925625 150.359063 
L 49.530625 150.359063 
L 48.135625 150.359063 
L 46.740625 150.359063 
L 45.345625 150.359063 
L 43.950625 150.359063 
L 42.555625 150.359063 
L 41.160625 150.359063 
L 39.765625 150.359063 
L 38.370625 150.359063 
L 36.975625 150.359063 
L 35.580625 150.359063 
L 34.185625 150.359063 
L 32.790625 150.359063 
L 31.395625 150.359063 
L 30.000625 150.359063 
L 28.605625 150.359063 
L 27.210625 150.359063 
L 25.815625 150.359063 
L 24.420625 150.359063 
L 23.025625 150.359063 
L 21.630625 150.359063 
L 20.235625 150.359063 
L 18.840625 150.359063 
L 17.445625 150.359063 
L 16.050625 150.359063 
L 14.655625 150.359063 
L 13.260625 150.359063 
L 11.865625 150.359063 
L 10.470625 150.359063 
L 9.075625 150.359063 
L 7.680625 150.359063 
L 6.285625 150.359063 
L 4.890625 150.359063 
L 3.495625 150.359063 
L 2.100625 150.359063 
L 0.705625 150.359063 
L -0.689375 150.359063 
L -2.084375 150.359063 
L -3.479375 150.359063 
L -4.874375 150.359063 
L -6.269375 150.359063 
L -7.664375 150.359063 
L -9.059375 150.359063 
L -10.454375 150.359063 
L -11.849375 150.359063 
L -13.244375 150.359063 
L -14.639375 150.359063 
L -16.034375 150.359063 
L -17.429375 150.359063 
L -18.824375 150.359063 
L -20.219375 150.359063 
L -21.614375 150.359063 
L -23.009375 150.359063 
L -24.404375 150.359063 
L -25.799375 150.359063 
L -27.194375 150.359063 
L -28.589375 150.359063 
L -29.984375 150.359063 
L -31.379375 150.359063 
L -32.774375 150.359063 
L -34.169375 150.359063 
L -35.564375 150.359063 
L -36.959375 150.359063 
L -38.354375 150.359063 
L -39.749375 150.359063 
L -41.144375 150.359063 
L -42.539375 150.359063 
L -43.934375 150.359063 
L -45.329375 150.359063 
L -46.724375 150.359063 
L -48.119375 150.359063 
L -49.514375 150.359063 
L -50.909375 150.359063 
L -52.304375 150.359063 
L -53.699375 150.359063 
L -55.094375 150.359063 
L -56.489375 150.359063 
L -57.884375 150.359063 
L -59.279375 150.359063 
z
" style="fill:#84b5d1;fill-opacity:0.5;stroke:#1b5c99;stroke-opacity:0.5;stroke-width:2;"/>
   </g>
   <g id="matplotlib.axis_1">
    <g id="xtick_1">
     <g id="line2d_1">
      <path clip-path="url(#pf27686f519)" d="M 52.320625 150.359063 
L 52.320625 11.759063 
" style="fill:none;stroke:#696969;stroke-linecap:square;stroke-opacity:0.5;stroke-width:0.8;"/>
     </g>
     <g id="line2d_2">
      <defs>
       <path d="M 0 0 
L 0 3.5 
" id="m9d005d3563" style="stroke:#000000;stroke-width:0.8;"/>
      </defs>
      <g>
       <use style="stroke:#000000;stroke-width:0.8;" x="52.320625" xlink:href="#m9d005d3563" y="150.359063"/>
      </g>
     </g>
     <g id="text_1">
      <!-- 8 AM -->
      <defs>
       <path d="M 31.78125 34.625 
Q 24.75 34.625 20.71875 30.859375 
Q 16.703125 27.09375 16.703125 20.515625 
Q 16.703125 13.921875 20.71875 10.15625 
Q 24.75 6.390625 31.78125 6.390625 
Q 38.8125 6.390625 42.859375 10.171875 
Q 46.921875 13.96875 46.921875 20.515625 
Q 46.921875 27.09375 42.890625 30.859375 
Q 38.875 34.625 31.78125 34.625 
z
M 21.921875 38.8125 
Q 15.578125 40.375 12.03125 44.71875 
Q 8.5 49.078125 8.5 55.328125 
Q 8.5 64.0625 14.71875 69.140625 
Q 20.953125 74.21875 31.78125 74.21875 
Q 42.671875 74.21875 48.875 69.140625 
Q 55.078125 64.0625 55.078125 55.328125 
Q 55.078125 49.078125 51.53125 44.71875 
Q 48 40.375 41.703125 38.8125 
Q 48.828125 37.15625 52.796875 32.3125 
Q 56.78125 27.484375 56.78125 20.515625 
Q 56.78125 9.90625 50.3125 4.234375 
Q 43.84375 -1.421875 31.78125 -1.421875 
Q 19.734375 -1.421875 13.25 4.234375 
Q 6.78125 9.90625 6.78125 20.515625 
Q 6.78125 27.484375 10.78125 32.3125 
Q 14.796875 37.15625 21.921875 38.8125 
z
M 18.3125 54.390625 
Q 18.3125 48.734375 21.84375 45.5625 
Q 25.390625 42.390625 31.78125 42.390625 
Q 38.140625 42.390625 41.71875 45.5625 
Q 45.3125 48.734375 45.3125 54.390625 
Q 45.3125 60.0625 41.71875 63.234375 
Q 38.140625 66.40625 31.78125 66.40625 
Q 25.390625 66.40625 21.84375 63.234375 
Q 18.3125 60.0625 18.3125 54.390625 
z
" id="DejaVuSans-56"/>
       <path id="DejaVuSans-32"/>
       <path d="M 34.1875 63.1875 
L 20.796875 26.90625 
L 47.609375 26.90625 
z
M 28.609375 72.90625 
L 39.796875 72.90625 
L 67.578125 0 
L 57.328125 0 
L 50.6875 18.703125 
L 17.828125 18.703125 
L 11.1875 0 
L 0.78125 0 
z
" id="DejaVuSans-65"/>
       <path d="M 9.8125 72.90625 
L 24.515625 72.90625 
L 43.109375 23.296875 
L 61.8125 72.90625 
L 76.515625 72.90625 
L 76.515625 0 
L 66.890625 0 
L 66.890625 64.015625 
L 48.09375 14.015625 
L 38.1875 14.015625 
L 19.390625 64.015625 
L 19.390625 0 
L 9.8125 0 
z
" id="DejaVuSans-77"/>
      </defs>
      <g transform="translate(37.315 170.977188)scale(0.12 -0.12)">
       <use xlink:href="#DejaVuSans-56"/>
       <use x="63.623047" xlink:href="#DejaVuSans-32"/>
       <use x="95.410156" xlink:href="#DejaVuSans-65"/>
       <use x="163.818359" xlink:href="#DejaVuSans-77"/>
      </g>
     </g>
    </g>
    <g id="xtick_2">
     <g id="line2d_3">
      <path clip-path="url(#pf27686f519)" d="M 108.120625 150.359063 
L 108.120625 11.759063 
" style="fill:none;stroke:#696969;stroke-linecap:square;stroke-opacity:0.5;stroke-width:0.8;"/>
     </g>
     <g id="line2d_4">
      <g>
       <use style="stroke:#000000;stroke-width:0.8;" x="108.120625" xlink:href="#m9d005d3563" y="150.359063"/>
      </g>
     </g>
     <g id="text_2">
      <!-- 12 PM -->
      <defs>
       <path d="M 12.40625 8.296875 
L 28.515625 8.296875 
L 28.515625 63.921875 
L 10.984375 60.40625 
L 10.984375 69.390625 
L 28.421875 72.90625 
L 38.28125 72.90625 
L 38.28125 8.296875 
L 54.390625 8.296875 
L 54.390625 0 
L 12.40625 0 
z
" id="DejaVuSans-49"/>
       <path d="M 19.1875 8.296875 
L 53.609375 8.296875 
L 53.609375 0 
L 7.328125 0 
L 7.328125 8.296875 
Q 12.9375 14.109375 22.625 23.890625 
Q 32.328125 33.6875 34.8125 36.53125 
Q 39.546875 41.84375 41.421875 45.53125 
Q 43.3125 49.21875 43.3125 52.78125 
Q 43.3125 58.59375 39.234375 62.25 
Q 35.15625 65.921875 28.609375 65.921875 
Q 23.96875 65.921875 18.8125 64.3125 
Q 13.671875 62.703125 7.8125 59.421875 
L 7.8125 69.390625 
Q 13.765625 71.78125 18.9375 73 
Q 24.125 74.21875 28.421875 74.21875 
Q 39.75 74.21875 46.484375 68.546875 
Q 53.21875 62.890625 53.21875 53.421875 
Q 53.21875 48.921875 51.53125 44.890625 
Q 49.859375 40.875 45.40625 35.40625 
Q 44.1875 33.984375 37.640625 27.21875 
Q 31.109375 20.453125 19.1875 8.296875 
z
" id="DejaVuSans-50"/>
       <path d="M 19.671875 64.796875 
L 19.671875 37.40625 
L 32.078125 37.40625 
Q 38.96875 37.40625 42.71875 40.96875 
Q 46.484375 44.53125 46.484375 51.125 
Q 46.484375 57.671875 42.71875 61.234375 
Q 38.96875 64.796875 32.078125 64.796875 
z
M 9.8125 72.90625 
L 32.078125 72.90625 
Q 44.34375 72.90625 50.609375 67.359375 
Q 56.890625 61.8125 56.890625 51.125 
Q 56.890625 40.328125 50.609375 34.8125 
Q 44.34375 29.296875 32.078125 29.296875 
L 19.671875 29.296875 
L 19.671875 0 
L 9.8125 0 
z
" id="DejaVuSans-80"/>
      </defs>
      <g transform="translate(89.784062 170.977188)scale(0.12 -0.12)">
       <use xlink:href="#DejaVuSans-49"/>
       <use x="63.623047" xlink:href="#DejaVuSans-50"/>
       <use x="127.246094" xlink:href="#DejaVuSans-32"/>
       <use x="159.033203" xlink:href="#DejaVuSans-80"/>
       <use x="219.335938" xlink:href="#DejaVuSans-77"/>
      </g>
     </g>
    </g>
    <g id="xtick_3">
     <g id="line2d_5">
      <path clip-path="url(#pf27686f519)" d="M 163.920625 150.359063 
L 163.920625 11.759063 
" style="fill:none;stroke:#696969;stroke-linecap:square;stroke-opacity:0.5;stroke-width:0.8;"/>
     </g>
     <g id="line2d_6">
      <g>
       <use style="stroke:#000000;stroke-width:0.8;" x="163.920625" xlink:href="#m9d005d3563" y="150.359063"/>
      </g>
     </g>
     <g id="text_3">
      <!-- 4 PM -->
      <defs>
       <path d="M 37.796875 64.3125 
L 12.890625 25.390625 
L 37.796875 25.390625 
z
M 35.203125 72.90625 
L 47.609375 72.90625 
L 47.609375 25.390625 
L 58.015625 25.390625 
L 58.015625 17.1875 
L 47.609375 17.1875 
L 47.609375 0 
L 37.796875 0 
L 37.796875 17.1875 
L 4.890625 17.1875 
L 4.890625 26.703125 
z
" id="DejaVuSans-52"/>
      </defs>
      <g transform="translate(149.401562 170.977188)scale(0.12 -0.12)">
       <use xlink:href="#DejaVuSans-52"/>
       <use x="63.623047" xlink:href="#DejaVuSans-32"/>
       <use x="95.410156" xlink:href="#DejaVuSans-80"/>
       <use x="155.712891" xlink:href="#DejaVuSans-77"/>
      </g>
     </g>
    </g>
    <g id="xtick_4">
     <g id="line2d_7">
      <path clip-path="url(#pf27686f519)" d="M 219.720625 150.359063 
L 219.720625 11.759063 
" style="fill:none;stroke:#696969;stroke-linecap:square;stroke-opacity:0.5;stroke-width:0.8;"/>
     </g>
     <g id="line2d_8">
      <g>
       <use style="stroke:#000000;stroke-width:0.8;" x="219.720625" xlink:href="#m9d005d3563" y="150.359063"/>
      </g>
     </g>
     <g id="text_4">
      <!-- 8 PM -->
      <g transform="translate(205.201562 170.977188)scale(0.12 -0.12)">
       <use xlink:href="#DejaVuSans-56"/>
       <use x="63.623047" xlink:href="#DejaVuSans-32"/>
       <use x="95.410156" xlink:href="#DejaVuSans-80"/>
       <use x="155.712891" xlink:href="#DejaVuSans-77"/>
      </g>
     </g>
    </g>
    <g id="xtick_5">
     <g id="line2d_9">
      <path clip-path="url(#pf27686f519)" d="M 275.520625 150.359063 
L 275.520625 11.759063 
" style="fill:none;stroke:#696969;stroke-linecap:square;stroke-opacity:0.5;stroke-width:0.8;"/>
     </g>
     <g id="line2d_10">
      <g>
       <use style="stroke:#000000;stroke-width:0.8;" x="275.520625" xlink:href="#m9d005d3563" y="150.359063"/>
      </g>
     </g>
     <g id="text_5">
      <!-- 12 AM -->
      <g transform="translate(256.6975 170.977188)scale(0.12 -0.12)">
       <use xlink:href="#DejaVuSans-49"/>
       <use x="63.623047" xlink:href="#DejaVuSans-50"/>
       <use x="127.246094" xlink:href="#DejaVuSans-32"/>
       <use x="159.033203" xlink:href="#DejaVuSans-65"/>
       <use x="227.441406" xlink:href="#DejaVuSans-77"/>
      </g>
     </g>
    </g>
   </g>
   <g id="matplotlib.axis_2">
    <g id="ytick_1">
     <g id="line2d_11">
      <path clip-path="url(#pf27686f519)" d="M 52.320625 150.359063 
L 275.520625 150.359063 
" style="fill:none;stroke:#696969;stroke-linecap:square;stroke-opacity:0.5;stroke-width:0.8;"/>
     </g>
     <g id="text_6">
      <!-- 0 -->
      <defs>
       <path d="M 31.78125 66.40625 
Q 24.171875 66.40625 20.328125 58.90625 
Q 16.5 51.421875 16.5 36.375 
Q 16.5 21.390625 20.328125 13.890625 
Q 24.171875 6.390625 31.78125 6.390625 
Q 39.453125 6.390625 43.28125 13.890625 
Q 47.125 21.390625 47.125 36.375 
Q 47.125 51.421875 43.28125 58.90625 
Q 39.453125 66.40625 31.78125 66.40625 
z
M 31.78125 74.21875 
Q 44.046875 74.21875 50.515625 64.515625 
Q 56.984375 54.828125 56.984375 36.375 
Q 56.984375 17.96875 50.515625 8.265625 
Q 44.046875 -1.421875 31.78125 -1.421875 
Q 19.53125 -1.421875 13.0625 8.265625 
Q 6.59375 17.96875 6.59375 36.375 
Q 6.59375 54.828125 13.0625 64.515625 
Q 19.53125 74.21875 31.78125 74.21875 
z
" id="DejaVuSans-48"/>
      </defs>
      <g transform="translate(37.685625 154.918125)scale(0.12 -0.12)">
       <use xlink:href="#DejaVuSans-48"/>
      </g>
     </g>
    </g>
    <g id="ytick_2">
     <g id="line2d_12">
      <path clip-path="url(#pf27686f519)" d="M 52.320625 81.059063 
L 275.520625 81.059063 
" style="fill:none;stroke:#696969;stroke-linecap:square;stroke-opacity:0.5;stroke-width:0.8;"/>
     </g>
     <g id="text_7">
      <!-- 50 -->
      <defs>
       <path d="M 10.796875 72.90625 
L 49.515625 72.90625 
L 49.515625 64.59375 
L 19.828125 64.59375 
L 19.828125 46.734375 
Q 21.96875 47.46875 24.109375 47.828125 
Q 26.265625 48.1875 28.421875 48.1875 
Q 40.625 48.1875 47.75 41.5 
Q 54.890625 34.8125 54.890625 23.390625 
Q 54.890625 11.625 47.5625 5.09375 
Q 40.234375 -1.421875 26.90625 -1.421875 
Q 22.3125 -1.421875 17.546875 -0.640625 
Q 12.796875 0.140625 7.71875 1.703125 
L 7.71875 11.625 
Q 12.109375 9.234375 16.796875 8.0625 
Q 21.484375 6.890625 26.703125 6.890625 
Q 35.15625 6.890625 40.078125 11.328125 
Q 45.015625 15.765625 45.015625 23.390625 
Q 45.015625 31 40.078125 35.4375 
Q 35.15625 39.890625 26.703125 39.890625 
Q 22.75 39.890625 18.8125 39.015625 
Q 14.890625 38.140625 10.796875 36.28125 
z
" id="DejaVuSans-53"/>
      </defs>
      <g transform="translate(30.050625 85.618125)scale(0.12 -0.12)">
       <use xlink:href="#DejaVuSans-53"/>
       <use x="63.623047" xlink:href="#DejaVuSans-48"/>
      </g>
     </g>
    </g>
    <g id="ytick_3">
     <g id="line2d_13">
      <path clip-path="url(#pf27686f519)" d="M 52.320625 11.759063 
L 275.520625 11.759063 
" style="fill:none;stroke:#696969;stroke-linecap:square;stroke-opacity:0.5;stroke-width:0.8;"/>
     </g>
     <g id="text_8">
      <!-- 100 % -->
      <defs>
       <path d="M 72.703125 32.078125 
Q 68.453125 32.078125 66.03125 28.46875 
Q 63.625 24.859375 63.625 18.40625 
Q 63.625 12.0625 66.03125 8.421875 
Q 68.453125 4.78125 72.703125 4.78125 
Q 76.859375 4.78125 79.265625 8.421875 
Q 81.6875 12.0625 81.6875 18.40625 
Q 81.6875 24.8125 79.265625 28.4375 
Q 76.859375 32.078125 72.703125 32.078125 
z
M 72.703125 38.28125 
Q 80.421875 38.28125 84.953125 32.90625 
Q 89.5 27.546875 89.5 18.40625 
Q 89.5 9.28125 84.9375 3.921875 
Q 80.375 -1.421875 72.703125 -1.421875 
Q 64.890625 -1.421875 60.34375 3.921875 
Q 55.8125 9.28125 55.8125 18.40625 
Q 55.8125 27.59375 60.375 32.9375 
Q 64.9375 38.28125 72.703125 38.28125 
z
M 22.3125 68.015625 
Q 18.109375 68.015625 15.6875 64.375 
Q 13.28125 60.75 13.28125 54.390625 
Q 13.28125 47.953125 15.671875 44.328125 
Q 18.0625 40.71875 22.3125 40.71875 
Q 26.5625 40.71875 28.96875 44.328125 
Q 31.390625 47.953125 31.390625 54.390625 
Q 31.390625 60.6875 28.953125 64.34375 
Q 26.515625 68.015625 22.3125 68.015625 
z
M 66.40625 74.21875 
L 74.21875 74.21875 
L 28.609375 -1.421875 
L 20.796875 -1.421875 
z
M 22.3125 74.21875 
Q 30.03125 74.21875 34.609375 68.875 
Q 39.203125 63.53125 39.203125 54.390625 
Q 39.203125 45.171875 34.640625 39.84375 
Q 30.078125 34.515625 22.3125 34.515625 
Q 14.546875 34.515625 10.03125 39.859375 
Q 5.515625 45.21875 5.515625 54.390625 
Q 5.515625 63.484375 10.046875 68.84375 
Q 14.59375 74.21875 22.3125 74.21875 
z
" id="DejaVuSans-37"/>
      </defs>
      <g transform="translate(7.2 16.318125)scale(0.12 -0.12)">
       <use xlink:href="#DejaVuSans-49"/>
       <use x="63.623047" xlink:href="#DejaVuSans-48"/>
       <use x="127.246094" xlink:href="#DejaVuSans-48"/>
       <use x="190.869141" xlink:href="#DejaVuSans-32"/>
       <use x="222.65625" xlink:href="#DejaVuSans-37"/>
      </g>
     </g>
    </g>
   </g>
   <g id="patch_3">
    <path d="M 52.320625 150.359063 
L 275.520625 150.359063 
" style="fill:none;stroke:#000000;stroke-linecap:square;stroke-linejoin:miter;stroke-width:0.8;"/>
   </g>
  </g>
 </g>
 <defs>
  <clipPath id="pf27686f519">
   <rect height="138.6" width="223.2" x="52.320625" y="11.759063"/>
  </clipPath>
 </defs>
</svg>
