<?xml version="1.0" encoding="utf-8" standalone="no"?>
<!DOCTYPE svg PUBLIC "-//W3C//DTD SVG 1.1//EN"
  "http://www.w3.org/Graphics/SVG/1.1/DTD/svg11.dtd">
<!-- Created with matplotlib (https://matplotlib.org/) -->
<svg height="180.672813pt" version="1.1" viewBox="0 0 301.54375 180.672813" width="301.54375pt" xmlns="http://www.w3.org/2000/svg" xmlns:xlink="http://www.w3.org/1999/xlink">
 <defs>
  <style type="text/css">
*{stroke-linecap:butt;stroke-linejoin:round;}
  </style>
 </defs>
 <g id="figure_1">
  <g id="patch_1">
   <path d="M 0 180.672813 
L 301.54375 180.672813 
L 301.54375 0 
L 0 0 
z
" style="fill:#ffffff;"/>
  </g>
  <g id="axes_1">
   <g id="patch_2">
    <path d="M 52.320625 150.359063 
L 275.520625 150.359063 
L 275.520625 11.759063 
L 52.320625 11.759063 
z
" style="fill:#ffffff;"/>
   </g>
   <g id="PolyCollection_1">
    <path clip-path="url(#peaf75a8e23)" d="M -59.279375 150.359063 
L -59.279375 -4266.394294 
L -57.884375 -4125.994581 
L -56.489375 -3988.597262 
L -55.094375 -3854.17046 
L -53.699375 -3722.682297 
L -52.304375 -3594.100898 
L -50.909375 -3468.394385 
L -49.514375 -3345.530881 
L -48.119375 -3225.47851 
L -46.724375 -3108.205393 
L -45.329375 -2993.679656 
L -43.934375 -2881.86942 
L -42.539375 -2772.742808 
L -41.144375 -2666.267944 
L -39.749375 -2562.412951 
L -38.354375 -2461.145952 
L -36.959375 -2362.43507 
L -35.564375 -2266.248427 
L -34.169375 -2172.554148 
L -32.774375 -2081.320355 
L -31.379375 -1992.515171 
L -29.984375 -1906.106719 
L -28.589375 -1822.063123 
L -27.194375 -1740.352505 
L -25.799375 -1660.942988 
L -24.404375 -1583.802696 
L -23.009375 -1508.899752 
L -21.614375 -1436.202278 
L -20.219375 -1365.678398 
L -18.824375 -1297.296235 
L -17.429375 -1231.023912 
L -16.034375 -1166.829552 
L -14.639375 -1104.681278 
L -13.244375 -1044.547213 
L -11.849375 -986.395481 
L -10.454375 -930.194203 
L -9.059375 -875.911504 
L -7.664375 -823.515507 
L -6.269375 -772.974334 
L -4.874375 -724.256108 
L -3.479375 -677.328953 
L -2.084375 -632.160992 
L -0.689375 -588.720348 
L 0.705625 -546.975143 
L 2.100625 -506.893502 
L 3.495625 -468.443546 
L 4.890625 -431.5934 
L 6.285625 -396.311185 
L 7.680625 -362.565026 
L 9.075625 -330.323046 
L 10.470625 -299.553366 
L 11.865625 -270.224111 
L 13.260625 -242.303404 
L 14.655625 -215.759367 
L 16.050625 -190.560124 
L 17.445625 -166.673798 
L 18.840625 -144.068511 
L 20.235625 -122.712388 
L 21.630625 -102.57355 
L 23.025625 -83.620121 
L 24.420625 -65.820225 
L 25.815625 -49.141983 
L 27.210625 -33.55352 
L 28.605625 -19.022959 
L 30.000625 -5.518421 
L 31.395625 6.991969 
L 32.790625 18.540088 
L 34.185625 29.157814 
L 35.580625 38.877023 
L 36.975625 47.729592 
L 38.370625 55.747399 
L 39.765625 62.962319 
L 41.160625 69.406231 
L 42.555625 75.11101 
L 43.950625 80.108535 
L 45.345625 84.430681 
L 46.740625 88.109326 
L 48.135625 91.176346 
L 49.530625 93.663619 
L 50.925625 95.603022 
L 52.320625 97.026431 
L 53.715625 97.965723 
L 55.110625 98.452776 
L 56.505625 98.519466 
L 57.900625 98.19767 
L 59.295625 97.519265 
L 60.690625 96.516128 
L 62.085625 95.220136 
L 63.480625 93.663166 
L 64.875625 91.877095 
L 66.270625 89.893799 
L 67.665625 87.745156 
L 69.060625 85.463043 
L 70.455625 83.079336 
L 71.850625 80.625912 
L 73.245625 78.134649 
L 74.640625 75.637423 
L 76.035625 73.166112 
L 77.430625 70.752591 
L 78.825625 68.428738 
L 80.220625 66.226431 
L 81.615625 64.172578 
L 83.010625 62.274219 
L 84.405625 60.533426 
L 85.800625 58.952272 
L 87.195625 57.532828 
L 88.590625 56.277168 
L 89.985625 55.187363 
L 91.380625 54.265485 
L 92.775625 53.513606 
L 94.170625 52.933799 
L 95.565625 52.524339 
L 96.960625 52.26831 
L 98.355625 52.144998 
L 99.750625 52.133691 
L 101.145625 52.213675 
L 102.540625 52.364238 
L 103.935625 52.564666 
L 105.330625 52.794246 
L 106.725625 53.032265 
L 108.120625 53.25801 
L 109.515625 53.453742 
L 110.910625 53.613621 
L 112.305625 53.734781 
L 113.700625 53.814355 
L 115.095625 53.849478 
L 116.490625 53.837283 
L 117.885625 53.774905 
L 119.280625 53.659478 
L 120.675625 53.488134 
L 122.070625 53.25801 
L 123.465625 52.967701 
L 124.860625 52.621661 
L 126.255625 52.225806 
L 127.650625 51.786052 
L 129.045625 51.308316 
L 130.440625 50.798512 
L 131.835625 50.262558 
L 133.230625 49.706371 
L 134.625625 49.135865 
L 136.020625 48.556957 
L 137.415625 47.983432 
L 138.810625 47.460542 
L 140.205625 47.041409 
L 141.600625 46.779154 
L 142.995625 46.726898 
L 144.390625 46.937763 
L 145.785625 47.46487 
L 147.180625 48.361339 
L 148.575625 49.680293 
L 149.970625 51.474852 
L 151.365625 53.768932 
L 152.760625 56.469628 
L 154.155625 59.45483 
L 155.550625 62.602427 
L 156.945625 65.790308 
L 158.340625 68.896364 
L 159.735625 71.798483 
L 161.130625 74.374554 
L 162.525625 76.502469 
L 163.920625 78.060115 
L 165.315625 78.963497 
L 166.710625 79.281071 
L 168.105625 79.119409 
L 169.500625 78.585083 
L 170.895625 77.784664 
L 172.290625 76.824723 
L 173.685625 75.811832 
L 175.080625 74.852561 
L 176.475625 74.053483 
L 177.870625 73.521168 
L 179.265625 73.332149 
L 180.660625 73.442804 
L 182.055625 73.779471 
L 183.450625 74.26849 
L 184.845625 74.836199 
L 186.240625 75.408937 
L 187.635625 75.913043 
L 189.030625 76.274856 
L 190.425625 76.420714 
L 191.820625 76.276957 
L 193.215625 75.790527 
L 194.610625 74.990779 
L 196.005625 73.927674 
L 197.400625 72.651171 
L 198.795625 71.21123 
L 200.190625 69.65781 
L 201.585625 68.040871 
L 202.980625 66.410373 
L 204.375625 64.816275 
L 205.770625 63.308536 
L 207.165625 61.931915 
L 208.560625 60.710358 
L 209.955625 59.662609 
L 211.350625 58.807415 
L 212.745625 58.163519 
L 214.140625 57.749667 
L 215.535625 57.584603 
L 216.930625 57.687072 
L 218.325625 58.075819 
L 219.720625 58.769589 
L 221.115625 59.774283 
L 222.510625 61.044431 
L 223.905625 62.521719 
L 225.300625 64.147835 
L 226.695625 65.864463 
L 228.090625 67.613291 
L 229.485625 69.336005 
L 230.880625 70.974291 
L 232.275625 72.469836 
L 233.670625 73.764326 
L 235.065625 74.799447 
L 236.460625 75.516887 
L 237.855625 75.858331 
L 239.250625 75.765466 
L 240.645625 75.179978 
L 242.040625 74.043554 
L 243.435625 72.297879 
L 244.830625 69.884641 
L 246.225625 66.745526 
L 247.620625 62.82222 
L 249.015625 58.05641 
L 250.410625 52.389782 
L 251.805625 45.764022 
L 253.200625 38.120817 
L 254.595625 29.401854 
L 255.990625 19.548818 
L 257.385625 8.503396 
L 258.780625 -3.792725 
L 260.175625 -17.39786 
L 261.570625 -32.370321 
L 262.965625 -48.768422 
L 264.360625 -66.650478 
L 265.755625 -86.0748 
L 267.150625 -107.099704 
L 268.545625 -129.783503 
L 269.940625 -154.18451 
L 271.335625 -180.361038 
L 272.730625 -208.371402 
L 274.125625 -238.273916 
L 275.520625 -270.126892 
L 275.520625 150.359063 
L 275.520625 150.359063 
L 274.125625 150.359063 
L 272.730625 150.359063 
L 271.335625 150.359063 
L 269.940625 150.359063 
L 268.545625 150.359063 
L 267.150625 150.359063 
L 265.755625 150.359063 
L 264.360625 150.359063 
L 262.965625 150.359063 
L 261.570625 150.359063 
L 260.175625 150.359063 
L 258.780625 150.359063 
L 257.385625 150.359063 
L 255.990625 150.359063 
L 254.595625 150.359063 
L 253.200625 150.359063 
L 251.805625 150.359063 
L 250.410625 150.359063 
L 249.015625 150.359063 
L 247.620625 150.359063 
L 246.225625 150.359063 
L 244.830625 150.359063 
L 243.435625 150.359063 
L 242.040625 150.359063 
L 240.645625 150.359063 
L 239.250625 150.359063 
L 237.855625 150.359063 
L 236.460625 150.359063 
L 235.065625 150.359063 
L 233.670625 150.359063 
L 232.275625 150.359063 
L 230.880625 150.359063 
L 229.485625 150.359063 
L 228.090625 150.359063 
L 226.695625 150.359063 
L 225.300625 150.359063 
L 223.905625 150.359063 
L 222.510625 150.359063 
L 221.115625 150.359063 
L 219.720625 150.359063 
L 218.325625 150.359063 
L 216.930625 150.359063 
L 215.535625 150.359063 
L 214.140625 150.359063 
L 212.745625 150.359063 
L 211.350625 150.359063 
L 209.955625 150.359063 
L 208.560625 150.359063 
L 207.165625 150.359063 
L 205.770625 150.359063 
L 204.375625 150.359063 
L 202.980625 150.359063 
L 201.585625 150.359063 
L 200.190625 150.359063 
L 198.795625 150.359063 
L 197.400625 150.359063 
L 196.005625 150.359063 
L 194.610625 150.359063 
L 193.215625 150.359063 
L 191.820625 150.359063 
L 190.425625 150.359063 
L 189.030625 150.359063 
L 187.635625 150.359063 
L 186.240625 150.359063 
L 184.845625 150.359063 
L 183.450625 150.359063 
L 182.055625 150.359063 
L 180.660625 150.359063 
L 179.265625 150.359063 
L 177.870625 150.359063 
L 176.475625 150.359063 
L 175.080625 150.359063 
L 173.685625 150.359063 
L 172.290625 150.359063 
L 170.895625 150.359063 
L 169.500625 150.359063 
L 168.105625 150.359063 
L 166.710625 150.359063 
L 165.315625 150.359063 
L 163.920625 150.359063 
L 162.525625 150.359063 
L 161.130625 150.359063 
L 159.735625 150.359063 
L 158.340625 150.359063 
L 156.945625 150.359063 
L 155.550625 150.359063 
L 154.155625 150.359063 
L 152.760625 150.359063 
L 151.365625 150.359063 
L 149.970625 150.359063 
L 148.575625 150.359063 
L 147.180625 150.359063 
L 145.785625 150.359063 
L 144.390625 150.359063 
L 142.995625 150.359063 
L 141.600625 150.359063 
L 140.205625 150.359063 
L 138.810625 150.359063 
L 137.415625 150.359063 
L 136.020625 150.359063 
L 134.625625 150.359063 
L 133.230625 150.359063 
L 131.835625 150.359063 
L 130.440625 150.359063 
L 129.045625 150.359063 
L 127.650625 150.359063 
L 126.255625 150.359063 
L 124.860625 150.359063 
L 123.465625 150.359063 
L 122.070625 150.359063 
L 120.675625 150.359063 
L 119.280625 150.359063 
L 117.885625 150.359063 
L 116.490625 150.359063 
L 115.095625 150.359063 
L 113.700625 150.359063 
L 112.305625 150.359063 
L 110.910625 150.359063 
L 109.515625 150.359063 
L 108.120625 150.359063 
L 106.725625 150.359063 
L 105.330625 150.359063 
L 103.935625 150.359063 
L 102.540625 150.359063 
L 101.145625 150.359063 
L 99.750625 150.359063 
L 98.355625 150.359063 
L 96.960625 150.359063 
L 95.565625 150.359063 
L 94.170625 150.359063 
L 92.775625 150.359063 
L 91.380625 150.359063 
L 89.985625 150.359063 
L 88.590625 150.359063 
L 87.195625 150.359063 
L 85.800625 150.359063 
L 84.405625 150.359063 
L 83.010625 150.359063 
L 81.615625 150.359063 
L 80.220625 150.359063 
L 78.825625 150.359063 
L 77.430625 150.359063 
L 76.035625 150.359063 
L 74.640625 150.359063 
L 73.245625 150.359063 
L 71.850625 150.359063 
L 70.455625 150.359063 
L 69.060625 150.359063 
L 67.665625 150.359063 
L 66.270625 150.359063 
L 64.875625 150.359063 
L 63.480625 150.359063 
L 62.085625 150.359063 
L 60.690625 150.359063 
L 59.295625 150.359063 
L 57.900625 150.359063 
L 56.505625 150.359063 
L 55.110625 150.359063 
L 53.715625 150.359063 
L 52.320625 150.359063 
L 50.925625 150.359063 
L 49.530625 150.359063 
L 48.135625 150.359063 
L 46.740625 150.359063 
L 45.345625 150.359063 
L 43.950625 150.359063 
L 42.555625 150.359063 
L 41.160625 150.359063 
L 39.765625 150.359063 
L 38.370625 150.359063 
L 36.975625 150.359063 
L 35.580625 150.359063 
L 34.185625 150.359063 
L 32.790625 150.359063 
L 31.395625 150.359063 
L 30.000625 150.359063 
L 28.605625 150.359063 
L 27.210625 150.359063 
L 25.815625 150.359063 
L 24.420625 150.359063 
L 23.025625 150.359063 
L 21.630625 150.359063 
L 20.235625 150.359063 
L 18.840625 150.359063 
L 17.445625 150.359063 
L 16.050625 150.359063 
L 14.655625 150.359063 
L 13.260625 150.359063 
L 11.865625 150.359063 
L 10.470625 150.359063 
L 9.075625 150.359063 
L 7.680625 150.359063 
L 6.285625 150.359063 
L 4.890625 150.359063 
L 3.495625 150.359063 
L 2.100625 150.359063 
L 0.705625 150.359063 
L -0.689375 150.359063 
L -2.084375 150.359063 
L -3.479375 150.359063 
L -4.874375 150.359063 
L -6.269375 150.359063 
L -7.664375 150.359063 
L -9.059375 150.359063 
L -10.454375 150.359063 
L -11.849375 150.359063 
L -13.244375 150.359063 
L -14.639375 150.359063 
L -16.034375 150.359063 
L -17.429375 150.359063 
L -18.824375 150.359063 
L -20.219375 150.359063 
L -21.614375 150.359063 
L -23.009375 150.359063 
L -24.404375 150.359063 
L -25.799375 150.359063 
L -27.194375 150.359063 
L -28.589375 150.359063 
L -29.984375 150.359063 
L -31.379375 150.359063 
L -32.774375 150.359063 
L -34.169375 150.359063 
L -35.564375 150.359063 
L -36.959375 150.359063 
L -38.354375 150.359063 
L -39.749375 150.359063 
L -41.144375 150.359063 
L -42.539375 150.359063 
L -43.934375 150.359063 
L -45.329375 150.359063 
L -46.724375 150.359063 
L -48.119375 150.359063 
L -49.514375 150.359063 
L -50.909375 150.359063 
L -52.304375 150.359063 
L -53.699375 150.359063 
L -55.094375 150.359063 
L -56.489375 150.359063 
L -57.884375 150.359063 
L -59.279375 150.359063 
z
" style="fill:#84b5d1;fill-opacity:0.5;stroke:#1b5c99;stroke-opacity:0.5;stroke-width:2;"/>
   </g>
   <g id="matplotlib.axis_1">
    <g id="xtick_1">
     <g id="line2d_1">
      <path clip-path="url(#peaf75a8e23)" d="M 52.320625 150.359063 
L 52.320625 11.759063 
" style="fill:none;stroke:#696969;stroke-linecap:square;stroke-opacity:0.5;stroke-width:0.8;"/>
     </g>
     <g id="line2d_2">
      <defs>
       <path d="M 0 0 
L 0 3.5 
" id="md17a62c469" style="stroke:#000000;stroke-width:0.8;"/>
      </defs>
      <g>
       <use style="stroke:#000000;stroke-width:0.8;" x="52.320625" xlink:href="#md17a62c469" y="150.359063"/>
      </g>
     </g>
     <g id="text_1">
      <!-- 8 AM -->
      <defs>
       <path d="M 31.78125 34.625 
Q 24.75 34.625 20.71875 30.859375 
Q 16.703125 27.09375 16.703125 20.515625 
Q 16.703125 13.921875 20.71875 10.15625 
Q 24.75 6.390625 31.78125 6.390625 
Q 38.8125 6.390625 42.859375 10.171875 
Q 46.921875 13.96875 46.921875 20.515625 
Q 46.921875 27.09375 42.890625 30.859375 
Q 38.875 34.625 31.78125 34.625 
z
M 21.921875 38.8125 
Q 15.578125 40.375 12.03125 44.71875 
Q 8.5 49.078125 8.5 55.328125 
Q 8.5 64.0625 14.71875 69.140625 
Q 20.953125 74.21875 31.78125 74.21875 
Q 42.671875 74.21875 48.875 69.140625 
Q 55.078125 64.0625 55.078125 55.328125 
Q 55.078125 49.078125 51.53125 44.71875 
Q 48 40.375 41.703125 38.8125 
Q 48.828125 37.15625 52.796875 32.3125 
Q 56.78125 27.484375 56.78125 20.515625 
Q 56.78125 9.90625 50.3125 4.234375 
Q 43.84375 -1.421875 31.78125 -1.421875 
Q 19.734375 -1.421875 13.25 4.234375 
Q 6.78125 9.90625 6.78125 20.515625 
Q 6.78125 27.484375 10.78125 32.3125 
Q 14.796875 37.15625 21.921875 38.8125 
z
M 18.3125 54.390625 
Q 18.3125 48.734375 21.84375 45.5625 
Q 25.390625 42.390625 31.78125 42.390625 
Q 38.140625 42.390625 41.71875 45.5625 
Q 45.3125 48.734375 45.3125 54.390625 
Q 45.3125 60.0625 41.71875 63.234375 
Q 38.140625 66.40625 31.78125 66.40625 
Q 25.390625 66.40625 21.84375 63.234375 
Q 18.3125 60.0625 18.3125 54.390625 
z
" id="DejaVuSans-56"/>
       <path id="DejaVuSans-32"/>
       <path d="M 34.1875 63.1875 
L 20.796875 26.90625 
L 47.609375 26.90625 
z
M 28.609375 72.90625 
L 39.796875 72.90625 
L 67.578125 0 
L 57.328125 0 
L 50.6875 18.703125 
L 17.828125 18.703125 
L 11.1875 0 
L 0.78125 0 
z
" id="DejaVuSans-65"/>
       <path d="M 9.8125 72.90625 
L 24.515625 72.90625 
L 43.109375 23.296875 
L 61.8125 72.90625 
L 76.515625 72.90625 
L 76.515625 0 
L 66.890625 0 
L 66.890625 64.015625 
L 48.09375 14.015625 
L 38.1875 14.015625 
L 19.390625 64.015625 
L 19.390625 0 
L 9.8125 0 
z
" id="DejaVuSans-77"/>
      </defs>
      <g transform="translate(37.315 170.977188)scale(0.12 -0.12)">
       <use xlink:href="#DejaVuSans-56"/>
       <use x="63.623047" xlink:href="#DejaVuSans-32"/>
       <use x="95.410156" xlink:href="#DejaVuSans-65"/>
       <use x="163.818359" xlink:href="#DejaVuSans-77"/>
      </g>
     </g>
    </g>
    <g id="xtick_2">
     <g id="line2d_3">
      <path clip-path="url(#peaf75a8e23)" d="M 108.120625 150.359063 
L 108.120625 11.759063 
" style="fill:none;stroke:#696969;stroke-linecap:square;stroke-opacity:0.5;stroke-width:0.8;"/>
     </g>
     <g id="line2d_4">
      <g>
       <use style="stroke:#000000;stroke-width:0.8;" x="108.120625" xlink:href="#md17a62c469" y="150.359063"/>
      </g>
     </g>
     <g id="text_2">
      <!-- 12 PM -->
      <defs>
       <path d="M 12.40625 8.296875 
L 28.515625 8.296875 
L 28.515625 63.921875 
L 10.984375 60.40625 
L 10.984375 69.390625 
L 28.421875 72.90625 
L 38.28125 72.90625 
L 38.28125 8.296875 
L 54.390625 8.296875 
L 54.390625 0 
L 12.40625 0 
z
" id="DejaVuSans-49"/>
       <path d="M 19.1875 8.296875 
L 53.609375 8.296875 
L 53.609375 0 
L 7.328125 0 
L 7.328125 8.296875 
Q 12.9375 14.109375 22.625 23.890625 
Q 32.328125 33.6875 34.8125 36.53125 
Q 39.546875 41.84375 41.421875 45.53125 
Q 43.3125 49.21875 43.3125 52.78125 
Q 43.3125 58.59375 39.234375 62.25 
Q 35.15625 65.921875 28.609375 65.921875 
Q 23.96875 65.921875 18.8125 64.3125 
Q 13.671875 62.703125 7.8125 59.421875 
L 7.8125 69.390625 
Q 13.765625 71.78125 18.9375 73 
Q 24.125 74.21875 28.421875 74.21875 
Q 39.75 74.21875 46.484375 68.546875 
Q 53.21875 62.890625 53.21875 53.421875 
Q 53.21875 48.921875 51.53125 44.890625 
Q 49.859375 40.875 45.40625 35.40625 
Q 44.1875 33.984375 37.640625 27.21875 
Q 31.109375 20.453125 19.1875 8.296875 
z
" id="DejaVuSans-50"/>
       <path d="M 19.671875 64.796875 
L 19.671875 37.40625 
L 32.078125 37.40625 
Q 38.96875 37.40625 42.71875 40.96875 
Q 46.484375 44.53125 46.484375 51.125 
Q 46.484375 57.671875 42.71875 61.234375 
Q 38.96875 64.796875 32.078125 64.796875 
z
M 9.8125 72.90625 
L 32.078125 72.90625 
Q 44.34375 72.90625 50.609375 67.359375 
Q 56.890625 61.8125 56.890625 51.125 
Q 56.890625 40.328125 50.609375 34.8125 
Q 44.34375 29.296875 32.078125 29.296875 
L 19.671875 29.296875 
L 19.671875 0 
L 9.8125 0 
z
" id="DejaVuSans-80"/>
      </defs>
      <g transform="translate(89.784062 170.977188)scale(0.12 -0.12)">
       <use xlink:href="#DejaVuSans-49"/>
       <use x="63.623047" xlink:href="#DejaVuSans-50"/>
       <use x="127.246094" xlink:href="#DejaVuSans-32"/>
       <use x="159.033203" xlink:href="#DejaVuSans-80"/>
       <use x="219.335938" xlink:href="#DejaVuSans-77"/>
      </g>
     </g>
    </g>
    <g id="xtick_3">
     <g id="line2d_5">
      <path clip-path="url(#peaf75a8e23)" d="M 163.920625 150.359063 
L 163.920625 11.759063 
" style="fill:none;stroke:#696969;stroke-linecap:square;stroke-opacity:0.5;stroke-width:0.8;"/>
     </g>
     <g id="line2d_6">
      <g>
       <use style="stroke:#000000;stroke-width:0.8;" x="163.920625" xlink:href="#md17a62c469" y="150.359063"/>
      </g>
     </g>
     <g id="text_3">
      <!-- 4 PM -->
      <defs>
       <path d="M 37.796875 64.3125 
L 12.890625 25.390625 
L 37.796875 25.390625 
z
M 35.203125 72.90625 
L 47.609375 72.90625 
L 47.609375 25.390625 
L 58.015625 25.390625 
L 58.015625 17.1875 
L 47.609375 17.1875 
L 47.609375 0 
L 37.796875 0 
L 37.796875 17.1875 
L 4.890625 17.1875 
L 4.890625 26.703125 
z
" id="DejaVuSans-52"/>
      </defs>
      <g transform="translate(149.401562 170.977188)scale(0.12 -0.12)">
       <use xlink:href="#DejaVuSans-52"/>
       <use x="63.623047" xlink:href="#DejaVuSans-32"/>
       <use x="95.410156" xlink:href="#DejaVuSans-80"/>
       <use x="155.712891" xlink:href="#DejaVuSans-77"/>
      </g>
     </g>
    </g>
    <g id="xtick_4">
     <g id="line2d_7">
      <path clip-path="url(#peaf75a8e23)" d="M 219.720625 150.359063 
L 219.720625 11.759063 
" style="fill:none;stroke:#696969;stroke-linecap:square;stroke-opacity:0.5;stroke-width:0.8;"/>
     </g>
     <g id="line2d_8">
      <g>
       <use style="stroke:#000000;stroke-width:0.8;" x="219.720625" xlink:href="#md17a62c469" y="150.359063"/>
      </g>
     </g>
     <g id="text_4">
      <!-- 8 PM -->
      <g transform="translate(205.201562 170.977188)scale(0.12 -0.12)">
       <use xlink:href="#DejaVuSans-56"/>
       <use x="63.623047" xlink:href="#DejaVuSans-32"/>
       <use x="95.410156" xlink:href="#DejaVuSans-80"/>
       <use x="155.712891" xlink:href="#DejaVuSans-77"/>
      </g>
     </g>
    </g>
    <g id="xtick_5">
     <g id="line2d_9">
      <path clip-path="url(#peaf75a8e23)" d="M 275.520625 150.359063 
L 275.520625 11.759063 
" style="fill:none;stroke:#696969;stroke-linecap:square;stroke-opacity:0.5;stroke-width:0.8;"/>
     </g>
     <g id="line2d_10">
      <g>
       <use style="stroke:#000000;stroke-width:0.8;" x="275.520625" xlink:href="#md17a62c469" y="150.359063"/>
      </g>
     </g>
     <g id="text_5">
      <!-- 12 AM -->
      <g transform="translate(256.6975 170.977188)scale(0.12 -0.12)">
       <use xlink:href="#DejaVuSans-49"/>
       <use x="63.623047" xlink:href="#DejaVuSans-50"/>
       <use x="127.246094" xlink:href="#DejaVuSans-32"/>
       <use x="159.033203" xlink:href="#DejaVuSans-65"/>
       <use x="227.441406" xlink:href="#DejaVuSans-77"/>
      </g>
     </g>
    </g>
   </g>
   <g id="matplotlib.axis_2">
    <g id="ytick_1">
     <g id="line2d_11">
      <path clip-path="url(#peaf75a8e23)" d="M 52.320625 150.359063 
L 275.520625 150.359063 
" style="fill:none;stroke:#696969;stroke-linecap:square;stroke-opacity:0.5;stroke-width:0.8;"/>
     </g>
     <g id="text_6">
      <!-- 0 -->
      <defs>
       <path d="M 31.78125 66.40625 
Q 24.171875 66.40625 20.328125 58.90625 
Q 16.5 51.421875 16.5 36.375 
Q 16.5 21.390625 20.328125 13.890625 
Q 24.171875 6.390625 31.78125 6.390625 
Q 39.453125 6.390625 43.28125 13.890625 
Q 47.125 21.390625 47.125 36.375 
Q 47.125 51.421875 43.28125 58.90625 
Q 39.453125 66.40625 31.78125 66.40625 
z
M 31.78125 74.21875 
Q 44.046875 74.21875 50.515625 64.515625 
Q 56.984375 54.828125 56.984375 36.375 
Q 56.984375 17.96875 50.515625 8.265625 
Q 44.046875 -1.421875 31.78125 -1.421875 
Q 19.53125 -1.421875 13.0625 8.265625 
Q 6.59375 17.96875 6.59375 36.375 
Q 6.59375 54.828125 13.0625 64.515625 
Q 19.53125 74.21875 31.78125 74.21875 
z
" id="DejaVuSans-48"/>
      </defs>
      <g transform="translate(37.685625 154.918125)scale(0.12 -0.12)">
       <use xlink:href="#DejaVuSans-48"/>
      </g>
     </g>
    </g>
    <g id="ytick_2">
     <g id="line2d_12">
      <path clip-path="url(#peaf75a8e23)" d="M 52.320625 81.059063 
L 275.520625 81.059063 
" style="fill:none;stroke:#696969;stroke-linecap:square;stroke-opacity:0.5;stroke-width:0.8;"/>
     </g>
     <g id="text_7">
      <!-- 50 -->
      <defs>
       <path d="M 10.796875 72.90625 
L 49.515625 72.90625 
L 49.515625 64.59375 
L 19.828125 64.59375 
L 19.828125 46.734375 
Q 21.96875 47.46875 24.109375 47.828125 
Q 26.265625 48.1875 28.421875 48.1875 
Q 40.625 48.1875 47.75 41.5 
Q 54.890625 34.8125 54.890625 23.390625 
Q 54.890625 11.625 47.5625 5.09375 
Q 40.234375 -1.421875 26.90625 -1.421875 
Q 22.3125 -1.421875 17.546875 -0.640625 
Q 12.796875 0.140625 7.71875 1.703125 
L 7.71875 11.625 
Q 12.109375 9.234375 16.796875 8.0625 
Q 21.484375 6.890625 26.703125 6.890625 
Q 35.15625 6.890625 40.078125 11.328125 
Q 45.015625 15.765625 45.015625 23.390625 
Q 45.015625 31 40.078125 35.4375 
Q 35.15625 39.890625 26.703125 39.890625 
Q 22.75 39.890625 18.8125 39.015625 
Q 14.890625 38.140625 10.796875 36.28125 
z
" id="DejaVuSans-53"/>
      </defs>
      <g transform="translate(30.050625 85.618125)scale(0.12 -0.12)">
       <use xlink:href="#DejaVuSans-53"/>
       <use x="63.623047" xlink:href="#DejaVuSans-48"/>
      </g>
     </g>
    </g>
    <g id="ytick_3">
     <g id="line2d_13">
      <path clip-path="url(#peaf75a8e23)" d="M 52.320625 11.759063 
L 275.520625 11.759063 
" style="fill:none;stroke:#696969;stroke-linecap:square;stroke-opacity:0.5;stroke-width:0.8;"/>
     </g>
     <g id="text_8">
      <!-- 100 % -->
      <defs>
       <path d="M 72.703125 32.078125 
Q 68.453125 32.078125 66.03125 28.46875 
Q 63.625 24.859375 63.625 18.40625 
Q 63.625 12.0625 66.03125 8.421875 
Q 68.453125 4.78125 72.703125 4.78125 
Q 76.859375 4.78125 79.265625 8.421875 
Q 81.6875 12.0625 81.6875 18.40625 
Q 81.6875 24.8125 79.265625 28.4375 
Q 76.859375 32.078125 72.703125 32.078125 
z
M 72.703125 38.28125 
Q 80.421875 38.28125 84.953125 32.90625 
Q 89.5 27.546875 89.5 18.40625 
Q 89.5 9.28125 84.9375 3.921875 
Q 80.375 -1.421875 72.703125 -1.421875 
Q 64.890625 -1.421875 60.34375 3.921875 
Q 55.8125 9.28125 55.8125 18.40625 
Q 55.8125 27.59375 60.375 32.9375 
Q 64.9375 38.28125 72.703125 38.28125 
z
M 22.3125 68.015625 
Q 18.109375 68.015625 15.6875 64.375 
Q 13.28125 60.75 13.28125 54.390625 
Q 13.28125 47.953125 15.671875 44.328125 
Q 18.0625 40.71875 22.3125 40.71875 
Q 26.5625 40.71875 28.96875 44.328125 
Q 31.390625 47.953125 31.390625 54.390625 
Q 31.390625 60.6875 28.953125 64.34375 
Q 26.515625 68.015625 22.3125 68.015625 
z
M 66.40625 74.21875 
L 74.21875 74.21875 
L 28.609375 -1.421875 
L 20.796875 -1.421875 
z
M 22.3125 74.21875 
Q 30.03125 74.21875 34.609375 68.875 
Q 39.203125 63.53125 39.203125 54.390625 
Q 39.203125 45.171875 34.640625 39.84375 
Q 30.078125 34.515625 22.3125 34.515625 
Q 14.546875 34.515625 10.03125 39.859375 
Q 5.515625 45.21875 5.515625 54.390625 
Q 5.515625 63.484375 10.046875 68.84375 
Q 14.59375 74.21875 22.3125 74.21875 
z
" id="DejaVuSans-37"/>
      </defs>
      <g transform="translate(7.2 16.318125)scale(0.12 -0.12)">
       <use xlink:href="#DejaVuSans-49"/>
       <use x="63.623047" xlink:href="#DejaVuSans-48"/>
       <use x="127.246094" xlink:href="#DejaVuSans-48"/>
       <use x="190.869141" xlink:href="#DejaVuSans-32"/>
       <use x="222.65625" xlink:href="#DejaVuSans-37"/>
      </g>
     </g>
    </g>
   </g>
   <g id="patch_3">
    <path d="M 52.320625 150.359063 
L 275.520625 150.359063 
" style="fill:none;stroke:#000000;stroke-linecap:square;stroke-linejoin:miter;stroke-width:0.8;"/>
   </g>
  </g>
 </g>
 <defs>
  <clipPath id="peaf75a8e23">
   <rect height="138.6" width="223.2" x="52.320625" y="11.759063"/>
  </clipPath>
 </defs>
</svg>
