<svg xmlns="http://www.w3.org/2000/svg" viewBox="0 0 399.06 111.32"><defs><style>.cls-1{fill:#1b5c99;}.cls-2{fill:#84b5d1;}.cls-3{fill:#92bdd6;}</style></defs><title>Asset 1</title><g id="Layer_2" data-name="Layer 2"><g id="图层_1" data-name="图层 1"><path class="cls-1" d="M0,33.8A1.49,1.49,0,0,0,0,34V87.87a8.51,8.51,0,1,0,17,0V61.23a32.62,32.62,0,0,0,34.22-1.89L40.92,49a18.2,18.2,0,0,1-8.32,2A18.43,18.43,0,0,1,14.17,32.6c0-.48,0-1,.06-1.42a18.42,18.42,0,0,1,18.37-17,18.87,18.87,0,0,1,3,.25A18.43,18.43,0,0,1,49.36,25,18,18,0,0,1,51,31.18c0,.47.06.94.06,1.42a18.21,18.21,0,0,1-2.78,9.72l8.16,8.17,2,2A32.6,32.6,0,1,0,0,32.6C0,33,0,33.4,0,33.8Z"/><path class="cls-2" d="M32.2,22.69V18.43h.4a14.17,14.17,0,0,1,12.69,7.87A23.94,23.94,0,0,0,32.6,22.68Z"/><path class="cls-1" d="M60.47,95.83a14.38,14.38,0,0,1-15.76-3,14,14,0,0,1-4.31-10,14.42,14.42,0,0,1,28.83,0v9.08a5.28,5.28,0,0,1-1.55,3.75,5.44,5.44,0,0,1-3.78,1.56A4.86,4.86,0,0,1,60.47,95.83ZM57.6,85.43a3.59,3.59,0,0,0,1.23-2.7A3.76,3.76,0,0,0,57.63,80a4.18,4.18,0,0,0-2.81-1.09A4.11,4.11,0,0,0,52.06,80a3.68,3.68,0,0,0-1.23,2.72,3.44,3.44,0,0,0,1.26,2.7,3.92,3.92,0,0,0,2.73,1.11A4,4,0,0,0,57.6,85.43Z"/><path class="cls-1" d="M75.91,95.18a5,5,0,0,1-1.58-3.6V82.94A15.14,15.14,0,0,1,79,72.68,14.84,14.84,0,0,1,89.36,68.4h.17a5.33,5.33,0,0,1,3.84,1.53,5.09,5.09,0,0,1,1.38,3.63,4.81,4.81,0,0,1-1.52,3.66,5.55,5.55,0,0,1-3.72,1.53H89.3a4.82,4.82,0,0,0-4.57,4.57v8.26a5.1,5.1,0,0,1-5.1,5.1A5.39,5.39,0,0,1,75.91,95.18Z"/><path class="cls-1" d="M98.44,95.21a5.05,5.05,0,0,1-1.58-3.6V63.31a4.84,4.84,0,0,1,1.58-3.58,5.36,5.36,0,0,1,3.69-1.46,5.16,5.16,0,0,1,3.66,1.46,5,5,0,0,1,1.47,3.58l0,13.18,6.91-6.27a4.72,4.72,0,0,1,3.26-1.32,5.64,5.64,0,0,1,3.83,1.53,5.09,5.09,0,0,1,1.62,3.72,5,5,0,0,1-1.59,3.63l-4.86,4.39,6.53,5.72a4.23,4.23,0,0,1,1.41,3.25,5.59,5.59,0,0,1-1.52,3.75,5,5,0,0,1-3.67,1.67A5.6,5.6,0,0,1,115.37,95l-8.14-7.21v3.81a5,5,0,0,1-1.47,3.6,5.11,5.11,0,0,1-3.63,1.47A5.34,5.34,0,0,1,98.44,95.21Z"/><path class="cls-1" d="M130.26,65.53a5.3,5.3,0,0,1,0-7.61,5.42,5.42,0,0,1,7.61,0,5.28,5.28,0,0,1,0,7.61,5.63,5.63,0,0,1-3.8,1.59A5.32,5.32,0,0,1,130.26,65.53Zm.11,30.06A5.18,5.18,0,0,1,128.79,92V73.53a5.13,5.13,0,0,1,1.58-3.6,5.37,5.37,0,0,1,3.78-1.53,5.1,5.1,0,0,1,5.07,5.13V92a5.21,5.21,0,0,1-5.15,5.16A5.29,5.29,0,0,1,130.37,95.59Z"/><path class="cls-1" d="M145.32,95.21a4.82,4.82,0,0,1-1.62-3.6V82.44A14,14,0,0,1,148,72.51a14.45,14.45,0,0,1,10-4.11,15.13,15.13,0,0,1,7.33,1.91,15.44,15.44,0,0,1,5.5,5A12.64,12.64,0,0,1,173,82.41v9.2a5,5,0,0,1-5.07,5.07,5.25,5.25,0,0,1-3.72-1.47,5,5,0,0,1-1.58-3.6v-9a3.51,3.51,0,0,0-1.52-2.69A5.36,5.36,0,0,0,158,78.83a4,4,0,0,0-2.63,1,3.18,3.18,0,0,0-1.21,2.43v9.35a5,5,0,0,1-5.06,5.07A5.34,5.34,0,0,1,145.32,95.21Z"/><path class="cls-1" d="M183.58,109.74a5.14,5.14,0,0,1-1.76-3.78,5.47,5.47,0,0,1,1.73-3.75,13.77,13.77,0,0,1,2.72-2.69,7.58,7.58,0,0,1,4.37-1.38c1.37,0,2.28,0,2.72,0s1,0,1.41-.06.58-.17.58-.49a1.24,1.24,0,0,0-.46-1.12A15.89,15.89,0,0,1,191,97a14.25,14.25,0,0,1-10.05-4.19,14.1,14.1,0,0,1-4.25-10,14.34,14.34,0,0,1,4.25-10.11,14.15,14.15,0,0,1,20.16,0,14.54,14.54,0,0,1,4.19,10.11,14.24,14.24,0,0,1-2,7.33,8,8,0,0,1,1.64,2.57,13.39,13.39,0,0,1,.79,4.81c0,3.78-1.15,6.53-3.4,8.32a13.25,13.25,0,0,1-7.79,2.46,5.5,5.5,0,0,0-2.2.38,5.37,5.37,0,0,0-1.29,1.05l-.47.44a4.36,4.36,0,0,1-3.08,1.23A5.87,5.87,0,0,1,183.58,109.74Zm10.13-24.31a3.57,3.57,0,0,0,1.15-2.7A3.69,3.69,0,0,0,193.71,80a4,4,0,0,0-5.45,0,3.73,3.73,0,0,0-1.17,2.72,3.55,3.55,0,0,0,1.17,2.7,3.84,3.84,0,0,0,2.7,1.11A3.93,3.93,0,0,0,193.71,85.43Z"/><path class="cls-3" d="M211.76,95.53a5.31,5.31,0,0,1-1.58-3.75V74.12c0-4.89,1.35-9,3.84-11.78S220.17,58,224.74,58s8.14,1.4,10.69,4.18,4,7.07,4,12.43V91.78a5.29,5.29,0,0,1-1.56,3.75,5.42,5.42,0,0,1-7.61,0,5.31,5.31,0,0,1-1.58-3.75V88.27H220.9v3.51a5.28,5.28,0,0,1-1.55,3.75,5.36,5.36,0,0,1-3.81,1.56A5.24,5.24,0,0,1,211.76,95.53ZM228.64,77.6V74.5c0-4.13-.94-5.86-3.67-5.86-1.55,0-2.49.29-3.1,1.14s-1,2.58-1,5V77.6Z"/><path class="cls-3" d="M246.13,92.78a14.06,14.06,0,0,1-4.25-10,14.3,14.3,0,0,1,4.25-10.11,14,14,0,0,1,10-4.22,8.91,8.91,0,0,1,3.9.65V63.31a5.42,5.42,0,0,1,1.47-3.84,5,5,0,0,1,3.69-1.55A5.25,5.25,0,0,1,269,59.47a5.43,5.43,0,0,1,1.52,3.84V82.73a14.25,14.25,0,0,1-24.34,10Zm12.77-7.35a3.55,3.55,0,0,0,1.17-2.7A3.72,3.72,0,0,0,258.93,80a4,4,0,0,0-5.45,0,3.73,3.73,0,0,0-1.17,2.72,3.58,3.58,0,0,0,1.2,2.7,3.67,3.67,0,0,0,2.66,1.11A3.84,3.84,0,0,0,258.9,85.43Z"/><path class="cls-3" d="M282.89,93.42l-8.08-17.78a4.66,4.66,0,0,1-.47-2.11,5.32,5.32,0,0,1,1.46-3.63,5,5,0,0,1,3.75-1.64,5.26,5.26,0,0,1,4.72,3l3.4,7.91L291,71.36a5.15,5.15,0,0,1,8.44-1.43,5.28,5.28,0,0,1,1.49,3.6,4.7,4.7,0,0,1-.47,2.14l-8,17.75a5.29,5.29,0,0,1-4.68,3.11A5.43,5.43,0,0,1,282.89,93.42Z"/><path class="cls-3" d="M306.65,65.53a5.3,5.3,0,0,1,0-7.61,5.43,5.43,0,0,1,7.62,0,5.3,5.3,0,0,1,0,7.61,5.65,5.65,0,0,1-3.81,1.59A5.35,5.35,0,0,1,306.65,65.53Zm.12,30.06A5.14,5.14,0,0,1,305.19,92V73.53a5.09,5.09,0,0,1,1.58-3.6,5.35,5.35,0,0,1,3.78-1.53,5.12,5.12,0,0,1,5.07,5.13V92a5.09,5.09,0,0,1-1.53,3.63,5,5,0,0,1-3.63,1.53A5.29,5.29,0,0,1,306.77,95.59Z"/><path class="cls-3" d="M325.17,96.68a5.52,5.52,0,0,1-3.43-.94,4.18,4.18,0,0,1-1.49-3.63c0-2.61,1.55-4.28,3.89-4.28h9.26a4,4,0,0,0,1.14-.12c.53-.09.79-.35.79-.79,0-.15-.11-.29-.32-.47a2.74,2.74,0,0,0-1.52-.26h-3.6a9,9,0,0,1-5-1,8,8,0,0,1-3.81-4.71,10,10,0,0,1-.53-3.29A8.67,8.67,0,0,1,323.12,71a8.92,8.92,0,0,1,6.38-2.66h8.82a4.33,4.33,0,0,1,2.9,1.11,4.18,4.18,0,0,1,1.29,3.19,4.81,4.81,0,0,1-1.17,3.17,3.67,3.67,0,0,1-2.72,1.31h-8.68a.85.85,0,0,0-.76.33.79.79,0,0,0-.11.49c0,.5.49.62,1.23.62h4.48a9.12,9.12,0,0,1,6.44,2.64,8.8,8.8,0,0,1,2.55,6.3,9.43,9.43,0,0,1-2.43,6.35A8.71,8.71,0,0,1,335,96.68Z"/><path class="cls-3" d="M350.39,92.78a14.09,14.09,0,0,1-4.24-10,14.33,14.33,0,0,1,4.24-10.11,14.15,14.15,0,0,1,20.16,0,14.5,14.5,0,0,1,4.19,10.11,14.26,14.26,0,0,1-24.35,10Zm12.78-7.35a3.55,3.55,0,0,0,1.17-2.7A3.72,3.72,0,0,0,363.2,80a4,4,0,0,0-5.45,0,3.73,3.73,0,0,0-1.17,2.72,3.58,3.58,0,0,0,1.2,2.7,3.67,3.67,0,0,0,2.66,1.11A3.86,3.86,0,0,0,363.17,85.43Z"/><path class="cls-3" d="M380.22,95.18a5,5,0,0,1-1.58-3.6V82.94a15.13,15.13,0,0,1,4.65-10.26,14.87,14.87,0,0,1,10.37-4.28h.18a5.36,5.36,0,0,1,3.84,1.53,5.09,5.09,0,0,1,1.38,3.63,4.79,4.79,0,0,1-1.53,3.66,5.51,5.51,0,0,1-3.72,1.53h-.2A4.8,4.8,0,0,0,389,83.32v8.26a5.12,5.12,0,0,1-5.1,5.1A5.35,5.35,0,0,1,380.22,95.18Z"/></g></g></svg>