<?xml version="1.0" encoding="utf-8"?>
<!-- Generator: Adobe Illustrator 22.0.1, SVG Export Plug-In . SVG Version: 6.00 Build 0)  -->
<svg version="1.1" id="Layer_1" xmlns="http://www.w3.org/2000/svg" xmlns:xlink="http://www.w3.org/1999/xlink" x="0px" y="0px"
	 viewBox="0 0 512 512" style="enable-background:new 0 0 512 512;" xml:space="preserve">
<style type="text/css">
	.st0{fill:#1B5C99;}
</style>
<g>
	<g>
		<path class="st0" d="M480.5,460.2L52,460l0.2-428.6c0-11.3-9.3-20.3-20.5-20.4c-11.3,0-20.5,9.1-20.5,20.4l-0.2,449
			c0,5.4,2.2,10.6,6,14.4c3.6,3.6,8.3,5.7,13.4,5.9c0.4,0,0.7,0,1.1,0l449,0.2c11.3,0,20.5-9.1,20.5-20.4
			C501,469.3,491.8,460.2,480.5,460.2z"/>
		<path class="st0" d="M118.6,401.9l112.7-94l143.6-7.8c7.6-0.4,14.3-5,17.5-11.8l51.4-110.5l11,24.1c8.1,16,23,11.9,27.2,10.1
			c10.4-4.4,14.8-16.8,10.1-27l-31.8-69.4c-6.9-14.3-22.1-13-27.4-10l-68.3,32.2c-10.2,4.8-14.6,17-9.8,27.2
			c4.8,10.2,17.1,14.5,27.3,9.7l23-10.9L360.4,260l-138.2,7.5c-4.4,0.2-8.6,1.9-12,4.7L92.3,370.6c-8.7,7.2-9.7,20-2.6,28.8
			C96.7,407.8,110.4,409.2,118.6,401.9L118.6,401.9z"/>
	</g>
</g>
</svg>
