<?xml version="1.0" encoding="utf-8"?>
<!-- Generator: Adobe Illustrator 22.0.1, SVG Export Plug-In . SVG Version: 6.00 Build 0)  -->
<svg version="1.1" id="Capa_1" xmlns="http://www.w3.org/2000/svg" xmlns:xlink="http://www.w3.org/1999/xlink" x="0px" y="0px"
	 viewBox="0 0 475.1 475.1" style="enable-background:new 0 0 475.1 475.1;" xml:space="preserve">
<style type="text/css">
	.st0{fill:#1B5C99;}
</style>
<g>
	<path class="st0" d="M362.3,125.1c-2.9-2.9-6.1-4.3-9.7-4.3c-0.8,0-1.9,0.2-3.4,0.6l-113.1,28l48.8-132.2c1-1.9,1.4-3.6,1.4-5.1
		c0-3.2-1.2-6-3.7-8.4c-2.5-2.4-5.5-3.6-9.1-3.6h-93.6c-3,0-5.7,0.9-8,2.6c-2.3,1.7-3.8,3.9-4.6,6.6l-57.4,235.5
		c-1,4.6,0.3,8.3,3.7,11.1c2.5,2.1,5.4,3.1,8.8,3.1c1.5,0,2.7-0.1,3.4-0.3l115.9-28.8l-56.2,230.7c-0.8,3-0.3,5.9,1.3,8.6
		c1.6,2.7,4,4.5,7.3,5.4c1.9,0.4,3.2,0.6,4,0.6c5.5,0,9.5-2.4,12-7.1l154.2-330.3C366.4,133,365.7,128.9,362.3,125.1z"/>
</g>
</svg>
